<svg version="1.1" xmlns="http://www.w3.org/2000/svg" viewBox="0 0 317.08687416745965 242.85967281603206" width="317.08687416745965" height="242.85967281603206">
    <!-- svg-source:excalidraw -->
    <rect x="0" y="0" width="317.08687416745965" height="242.85967281603206" fill="#ffffff"></rect>
    <g stroke-linecap="round" transform="translate(27.00983586297002 10) rotate(0 39.86137184504605 40.18544803890791)">
      <path d="M79.72 40.19 C79.72 42.09, 79.59 44.02, 79.32 45.9 C79.05 47.79, 78.64 49.68, 78.11 51.51 C77.58 53.34, 76.91 55.15, 76.12 56.88 C75.34 58.61, 74.42 60.31, 73.39 61.91 C72.37 63.52, 71.22 65.06, 69.99 66.5 C68.75 67.94, 67.39 69.31, 65.97 70.56 C64.54 71.8, 63 72.96, 61.41 73.99 C59.82 75.02, 58.14 75.95, 56.42 76.74 C54.7 77.53, 52.91 78.21, 51.09 78.74 C49.28 79.28, 47.41 79.69, 45.53 79.96 C43.66 80.23, 41.75 80.37, 39.86 80.37 C37.97 80.37, 36.06 80.23, 34.19 79.96 C32.32 79.69, 30.45 79.28, 28.63 78.74 C26.82 78.21, 25.02 77.53, 23.3 76.74 C21.58 75.95, 19.9 75.02, 18.31 73.99 C16.72 72.96, 15.19 71.8, 13.76 70.56 C12.33 69.31, 10.97 67.94, 9.74 66.5 C8.5 65.06, 7.35 63.52, 6.33 61.91 C5.31 60.31, 4.39 58.61, 3.6 56.88 C2.82 55.15, 2.15 53.34, 1.61 51.51 C1.08 49.68, 0.67 47.79, 0.41 45.9 C0.14 44.02, 0 42.09, 0 40.19 C0 38.28, 0.14 36.35, 0.41 34.47 C0.67 32.58, 1.08 30.69, 1.61 28.86 C2.15 27.03, 2.82 25.23, 3.6 23.49 C4.39 21.76, 5.31 20.06, 6.33 18.46 C7.35 16.86, 8.5 15.31, 9.74 13.87 C10.97 12.43, 12.33 11.06, 13.76 9.82 C15.19 8.57, 16.72 7.41, 18.31 6.38 C19.9 5.35, 21.58 4.42, 23.3 3.63 C25.02 2.84, 26.82 2.16, 28.63 1.63 C30.45 1.09, 32.32 0.68, 34.19 0.41 C36.06 0.14, 37.97 0, 39.86 0 C41.75 0, 43.66 0.14, 45.53 0.41 C47.41 0.68, 49.28 1.09, 51.09 1.63 C52.91 2.16, 54.7 2.84, 56.42 3.63 C58.14 4.42, 59.82 5.35, 61.41 6.38 C63 7.41, 64.54 8.57, 65.97 9.82 C67.39 11.06, 68.75 12.43, 69.99 13.87 C71.22 15.31, 72.37 16.86, 73.39 18.46 C74.42 20.06, 75.34 21.76, 76.12 23.49 C76.91 25.23, 77.58 27.03, 78.11 28.86 C78.64 30.69, 79.05 32.58, 79.32 34.47 C79.59 36.35, 79.66 39.23, 79.72 40.19 C79.79 41.14, 79.79 39.23, 79.72 40.19" stroke="#343a40" stroke-width="2" fill="none"></path>
    </g>
    <g stroke-linecap="round" transform="translate(223.9030029426633 14.562586759422175) rotate(0 39.86137184504605 40.18544803890791)">
      <path d="M79.72 40.19 C79.72 42.09, 79.59 44.02, 79.32 45.9 C79.05 47.79, 78.64 49.68, 78.11 51.51 C77.58 53.34, 76.91 55.15, 76.12 56.88 C75.34 58.61, 74.42 60.31, 73.39 61.91 C72.37 63.52, 71.22 65.06, 69.99 66.5 C68.75 67.94, 67.39 69.31, 65.97 70.56 C64.54 71.8, 63 72.96, 61.41 73.99 C59.82 75.02, 58.14 75.95, 56.42 76.74 C54.7 77.53, 52.91 78.21, 51.09 78.74 C49.28 79.28, 47.41 79.69, 45.53 79.96 C43.66 80.23, 41.75 80.37, 39.86 80.37 C37.97 80.37, 36.06 80.23, 34.19 79.96 C32.32 79.69, 30.45 79.28, 28.63 78.74 C26.82 78.21, 25.02 77.53, 23.3 76.74 C21.58 75.95, 19.9 75.02, 18.31 73.99 C16.72 72.96, 15.19 71.8, 13.76 70.56 C12.33 69.31, 10.97 67.94, 9.74 66.5 C8.5 65.06, 7.35 63.52, 6.33 61.91 C5.31 60.31, 4.39 58.61, 3.6 56.88 C2.82 55.15, 2.15 53.34, 1.61 51.51 C1.08 49.68, 0.67 47.79, 0.41 45.9 C0.14 44.02, 0 42.09, 0 40.19 C0 38.28, 0.14 36.35, 0.41 34.47 C0.67 32.58, 1.08 30.69, 1.61 28.86 C2.15 27.03, 2.82 25.23, 3.6 23.49 C4.39 21.76, 5.31 20.06, 6.33 18.46 C7.35 16.86, 8.5 15.31, 9.74 13.87 C10.97 12.43, 12.33 11.06, 13.76 9.82 C15.19 8.57, 16.72 7.41, 18.31 6.38 C19.9 5.35, 21.58 4.42, 23.3 3.63 C25.02 2.84, 26.82 2.16, 28.63 1.63 C30.45 1.09, 32.32 0.68, 34.19 0.41 C36.06 0.14, 37.97 0, 39.86 0 C41.75 0, 43.66 0.14, 45.53 0.41 C47.41 0.68, 49.28 1.09, 51.09 1.63 C52.91 2.16, 54.7 2.84, 56.42 3.63 C58.14 4.42, 59.82 5.35, 61.41 6.38 C63 7.41, 64.54 8.57, 65.97 9.82 C67.39 11.06, 68.75 12.43, 69.99 13.87 C71.22 15.31, 72.37 16.86, 73.39 18.46 C74.42 20.06, 75.34 21.76, 76.12 23.49 C76.91 25.23, 77.58 27.03, 78.11 28.86 C78.64 30.69, 79.05 32.58, 79.32 34.47 C79.59 36.35, 79.66 39.23, 79.72 40.19 C79.79 41.14, 79.79 39.23, 79.72 40.19" stroke="#343a40" stroke-width="2" fill="none"></path>
    </g>
    <g stroke-linecap="round">
      <g transform="translate(63.714763823644944 60.64364170816725) rotate(0 12.73562144851303 4.887724988348282)">
        <path d="M0 0 C0.44 0.73, 1.33 2.98, 2.62 4.41 C3.9 5.83, 5.58 7.6, 7.71 8.54 C9.84 9.48, 12.81 10.63, 15.42 10.05 C18.03 9.47, 21.72 6.78, 23.39 5.06 C25.07 3.34, 25.12 0.61, 25.47 -0.28 M0 0 C0.44 0.73, 1.33 2.98, 2.62 4.41 C3.9 5.83, 5.58 7.6, 7.71 8.54 C9.84 9.48, 12.81 10.63, 15.42 10.05 C18.03 9.47, 21.72 6.78, 23.39 5.06 C25.07 3.34, 25.12 0.61, 25.47 -0.28" stroke="#343a40" stroke-width="2" fill="none"></path>
      </g>
    </g>
    <mask></mask>
    <g stroke-linecap="round">
      <g transform="translate(273.1488232397371 64.1139358964283) rotate(0 -13.788553447358936 5.348382737843394)">
        <path d="M0 0 C-0.61 0.95, -2.16 4.06, -3.67 5.72 C-5.17 7.39, -6.83 9.13, -9.03 9.98 C-11.23 10.84, -14.21 11.53, -16.87 10.84 C-19.53 10.15, -23.18 7.68, -24.97 5.85 C-26.75 4.02, -27.14 0.86, -27.58 -0.14 M0 0 C-0.61 0.95, -2.16 4.06, -3.67 5.72 C-5.17 7.39, -6.83 9.13, -9.03 9.98 C-11.23 10.84, -14.21 11.53, -16.87 10.84 C-19.53 10.15, -23.18 7.68, -24.97 5.85 C-26.75 4.02, -27.14 0.86, -27.58 -0.14" stroke="#343a40" stroke-width="2" fill="none"></path>
      </g>
    </g>
    <mask></mask>
    <g transform="translate(62.82532243193896 51.44252631593099) rotate(0 0.00004999999998744897 0.00005000000000165983)" stroke="none">
      <path fill="#343a40" d="M 1.57,-1.57 Q 1.57,-1.57 1.77,-1.27 1.98,-0.98 2.09,-0.64 2.20,-0.29 2.19,0.05 2.18,0.41 2.05,0.75 1.93,1.09 1.70,1.37 1.48,1.65 1.18,1.84 0.87,2.04 0.52,2.12 0.18,2.21 -0.17,2.18 -0.53,2.15 -0.86,2.01 -1.19,1.87 -1.46,1.63 -1.73,1.39 -1.90,1.07 -2.08,0.76 -2.15,0.41 -2.21,0.05 -2.17,-0.29 -2.12,-0.65 -1.96,-0.97 -1.80,-1.29 -1.54,-1.54 -1.29,-1.80 -0.97,-1.96 -0.65,-2.12 -0.29,-2.17 0.06,-2.21 0.41,-2.15 0.76,-2.08 1.07,-1.90 1.39,-1.73 1.63,-1.46 1.87,-1.19 2.01,-0.86 2.15,-0.53 2.18,-0.17 2.21,0.18 2.12,0.52 2.03,0.87 1.84,1.18 1.65,1.48 1.37,1.70 1.09,1.93 0.75,2.05 0.41,2.18 0.05,2.19 -0.30,2.20 -0.64,2.09 -0.98,1.98 -1.27,1.77 -1.57,1.56 -1.57,1.57 -1.57,1.57 -1.73,1.35 -1.90,1.14 -2.01,0.90 -2.12,0.66 -2.16,0.39 -2.21,0.13 -2.20,-0.13 -2.18,-0.40 -2.10,-0.65 -2.02,-0.91 -1.88,-1.14 -1.74,-1.36 -1.55,-1.55 -1.36,-1.74 -1.14,-1.88 -0.91,-2.02 -0.65,-2.10 -0.40,-2.18 -0.13,-2.20 0.13,-2.21 0.39,-2.16 0.66,-2.12 0.90,-2.01 1.14,-1.90 1.35,-1.73 1.57,-1.57 1.57,-1.57 L 1.57,-1.57 Z">
      </path>
    </g>
    <g transform="translate(91.22006481833728 51.04822876824255) rotate(0 0.00004999999998744897 0.00005000000000165983)" stroke="none">
      <path fill="#343a40" d="M 1.57,-1.57 Q 1.57,-1.57 1.77,-1.27 1.98,-0.98 2.09,-0.64 2.20,-0.29 2.19,0.05 2.18,0.41 2.05,0.75 1.93,1.09 1.70,1.37 1.48,1.65 1.18,1.84 0.87,2.04 0.52,2.12 0.18,2.21 -0.17,2.18 -0.53,2.15 -0.86,2.01 -1.19,1.87 -1.46,1.63 -1.73,1.39 -1.90,1.07 -2.08,0.76 -2.15,0.41 -2.21,0.05 -2.17,-0.29 -2.12,-0.65 -1.96,-0.97 -1.80,-1.29 -1.54,-1.54 -1.29,-1.80 -0.97,-1.96 -0.65,-2.12 -0.29,-2.17 0.06,-2.21 0.41,-2.15 0.76,-2.08 1.07,-1.90 1.39,-1.73 1.63,-1.46 1.87,-1.19 2.01,-0.86 2.15,-0.53 2.18,-0.17 2.21,0.18 2.12,0.52 2.03,0.87 1.84,1.18 1.65,1.48 1.37,1.70 1.09,1.93 0.75,2.05 0.41,2.18 0.05,2.19 -0.30,2.20 -0.64,2.09 -0.98,1.98 -1.27,1.77 -1.57,1.56 -1.57,1.57 -1.57,1.57 -1.73,1.35 -1.90,1.14 -2.01,0.90 -2.12,0.66 -2.16,0.39 -2.21,0.13 -2.20,-0.13 -2.18,-0.40 -2.10,-0.65 -2.02,-0.91 -1.88,-1.14 -1.74,-1.36 -1.55,-1.55 -1.36,-1.74 -1.14,-1.88 -0.91,-2.02 -0.65,-2.10 -0.40,-2.18 -0.13,-2.20 0.13,-2.21 0.39,-2.16 0.66,-2.12 0.90,-2.01 1.14,-1.90 1.35,-1.73 1.57,-1.57 1.57,-1.57 L 1.57,-1.57 Z">
      </path>
    </g>
    <g transform="translate(245.79041888019788 51.87164005937393) rotate(0 0.00004999999998744897 0.00005000000000165983)" stroke="none">
      <path fill="#343a40" d="M 1.57,-1.57 Q 1.57,-1.57 1.77,-1.27 1.98,-0.98 2.09,-0.64 2.20,-0.29 2.19,0.05 2.18,0.41 2.05,0.75 1.93,1.09 1.70,1.37 1.48,1.65 1.18,1.84 0.87,2.04 0.52,2.12 0.18,2.21 -0.17,2.18 -0.53,2.15 -0.86,2.01 -1.19,1.87 -1.46,1.63 -1.73,1.39 -1.90,1.07 -2.08,0.76 -2.15,0.41 -2.21,0.05 -2.17,-0.29 -2.12,-0.65 -1.96,-0.97 -1.80,-1.29 -1.54,-1.54 -1.29,-1.80 -0.97,-1.96 -0.65,-2.12 -0.29,-2.17 0.06,-2.21 0.41,-2.15 0.76,-2.08 1.07,-1.90 1.39,-1.73 1.63,-1.46 1.87,-1.19 2.01,-0.86 2.15,-0.53 2.18,-0.17 2.21,0.18 2.12,0.52 2.03,0.87 1.84,1.18 1.65,1.48 1.37,1.70 1.09,1.93 0.75,2.05 0.41,2.18 0.05,2.19 -0.30,2.20 -0.64,2.09 -0.98,1.98 -1.27,1.77 -1.57,1.56 -1.57,1.57 -1.57,1.57 -1.73,1.35 -1.90,1.14 -2.01,0.90 -2.12,0.66 -2.16,0.39 -2.21,0.13 -2.20,-0.13 -2.18,-0.40 -2.10,-0.65 -2.02,-0.91 -1.88,-1.14 -1.74,-1.36 -1.55,-1.55 -1.36,-1.74 -1.14,-1.88 -0.91,-2.02 -0.65,-2.10 -0.40,-2.18 -0.13,-2.20 0.13,-2.21 0.39,-2.16 0.66,-2.12 0.90,-2.01 1.14,-1.90 1.35,-1.73 1.57,-1.57 1.57,-1.57 L 1.57,-1.57 Z">
      </path>
    </g>
    <g transform="translate(274.18692205111006 53.10270233557003) rotate(0 0.00004999999998744897 0.00005000000000165983)" stroke="none">
      <path fill="#343a40" d="M 1.57,-1.57 Q 1.57,-1.57 1.77,-1.27 1.98,-0.98 2.09,-0.64 2.20,-0.29 2.19,0.05 2.18,0.41 2.05,0.75 1.93,1.09 1.70,1.37 1.48,1.65 1.18,1.84 0.87,2.04 0.52,2.12 0.18,2.21 -0.17,2.18 -0.53,2.15 -0.86,2.01 -1.19,1.87 -1.46,1.63 -1.73,1.39 -1.90,1.07 -2.08,0.76 -2.15,0.41 -2.21,0.05 -2.17,-0.29 -2.12,-0.65 -1.96,-0.97 -1.80,-1.29 -1.54,-1.54 -1.29,-1.80 -0.97,-1.96 -0.65,-2.12 -0.29,-2.17 0.06,-2.21 0.41,-2.15 0.76,-2.08 1.07,-1.90 1.39,-1.73 1.63,-1.46 1.87,-1.19 2.01,-0.86 2.15,-0.53 2.18,-0.17 2.21,0.18 2.12,0.52 2.03,0.87 1.84,1.18 1.65,1.48 1.37,1.70 1.09,1.93 0.75,2.05 0.41,2.18 0.05,2.19 -0.30,2.20 -0.64,2.09 -0.98,1.98 -1.27,1.77 -1.57,1.56 -1.57,1.57 -1.57,1.57 -1.73,1.35 -1.90,1.14 -2.01,0.90 -2.12,0.66 -2.16,0.39 -2.21,0.13 -2.20,-0.13 -2.18,-0.40 -2.10,-0.65 -2.02,-0.91 -1.88,-1.14 -1.74,-1.36 -1.55,-1.55 -1.36,-1.74 -1.14,-1.88 -0.91,-2.02 -0.65,-2.10 -0.40,-2.18 -0.13,-2.20 0.13,-2.21 0.39,-2.16 0.66,-2.12 0.90,-2.01 1.14,-1.90 1.35,-1.73 1.57,-1.57 1.57,-1.57 L 1.57,-1.57 Z">
      </path>
    </g>
    <g stroke-linecap="round">
      <g transform="translate(40.44165941650749 83.75596016450208) rotate(0 -3.8718908107141488 49.34409684352113)">
        <path d="M0 0 C-2.94 4.44, -12.97 16.57, -17.65 26.65 C-22.33 36.74, -26.11 50.66, -28.09 60.51 C-30.07 70.35, -31.43 80.26, -29.53 85.72 C-27.64 91.18, -25.3 91.12, -16.75 93.29 C-8.19 95.45, 15.37 97.79, 21.79 98.69 M0 0 C-2.94 4.44, -12.97 16.57, -17.65 26.65 C-22.33 36.74, -26.11 50.66, -28.09 60.51 C-30.07 70.35, -31.43 80.26, -29.53 85.72 C-27.64 91.18, -25.3 91.12, -16.75 93.29 C-8.19 95.45, 15.37 97.79, 21.79 98.69" stroke="#343a40" stroke-width="2" fill="none"></path>
      </g>
    </g>
    <mask></mask>
    <g stroke-linecap="round" transform="translate(61.148095917630826 129.36507760946097) rotate(0 3.7393237284609313 6.855426835511935)">
      <path d="M7.48 6.86 C7.48 7.25, 7.46 7.66, 7.42 8.05 C7.38 8.44, 7.33 8.83, 7.25 9.2 C7.18 9.57, 7.09 9.94, 6.98 10.28 C6.87 10.63, 6.74 10.96, 6.6 11.26 C6.46 11.57, 6.31 11.85, 6.14 12.11 C5.98 12.36, 5.8 12.59, 5.61 12.79 C5.42 12.99, 5.22 13.16, 5.02 13.3 C4.81 13.43, 4.6 13.54, 4.39 13.61 C4.18 13.68, 3.96 13.71, 3.74 13.71 C3.52 13.71, 3.3 13.68, 3.09 13.61 C2.88 13.54, 2.66 13.43, 2.46 13.3 C2.26 13.16, 2.06 12.99, 1.87 12.79 C1.68 12.59, 1.5 12.36, 1.34 12.11 C1.17 11.85, 1.01 11.57, 0.87 11.26 C0.74 10.96, 0.61 10.63, 0.5 10.28 C0.39 9.94, 0.3 9.57, 0.23 9.2 C0.15 8.83, 0.09 8.44, 0.06 8.05 C0.02 7.66, 0 7.25, 0 6.86 C0 6.46, 0.02 6.06, 0.06 5.66 C0.09 5.27, 0.15 4.88, 0.23 4.51 C0.3 4.14, 0.39 3.77, 0.5 3.43 C0.61 3.08, 0.74 2.75, 0.87 2.45 C1.01 2.14, 1.17 1.86, 1.34 1.6 C1.5 1.35, 1.68 1.12, 1.87 0.92 C2.06 0.72, 2.26 0.55, 2.46 0.41 C2.66 0.28, 2.88 0.17, 3.09 0.1 C3.3 0.04, 3.52 0, 3.74 0 C3.96 0, 4.18 0.04, 4.39 0.1 C4.6 0.17, 4.81 0.28, 5.02 0.41 C5.22 0.55, 5.42 0.72, 5.61 0.92 C5.8 1.12, 5.98 1.35, 6.14 1.6 C6.31 1.86, 6.46 2.14, 6.6 2.45 C6.74 2.75, 6.87 3.08, 6.98 3.43 C7.09 3.77, 7.18 4.14, 7.25 4.51 C7.33 4.88, 7.38 5.27, 7.42 5.66 C7.46 6.06, 7.47 6.66, 7.48 6.86 C7.49 7.05, 7.49 6.66, 7.48 6.86" stroke="#343a40" stroke-width="2" fill="none"></path>
    </g>
    <g stroke-linecap="round" transform="translate(102.69613734497557 105.26721358160103) rotate(0 5.505115489123 3.9470639355977255)">
      <path d="M11.01 3.95 C11.01 4.18, 10.98 4.41, 10.93 4.63 C10.87 4.86, 10.79 5.08, 10.68 5.3 C10.57 5.51, 10.43 5.72, 10.27 5.92 C10.11 6.12, 9.93 6.31, 9.72 6.48 C9.52 6.66, 9.29 6.82, 9.04 6.97 C8.8 7.12, 8.53 7.25, 8.26 7.37 C7.98 7.48, 7.69 7.58, 7.39 7.66 C7.09 7.73, 6.77 7.79, 6.46 7.83 C6.15 7.87, 5.82 7.89, 5.51 7.89 C5.19 7.89, 4.86 7.87, 4.55 7.83 C4.24 7.79, 3.92 7.73, 3.62 7.66 C3.32 7.58, 3.03 7.48, 2.75 7.37 C2.48 7.25, 2.21 7.12, 1.97 6.97 C1.72 6.82, 1.49 6.66, 1.29 6.48 C1.08 6.31, 0.9 6.12, 0.74 5.92 C0.58 5.72, 0.44 5.51, 0.33 5.3 C0.22 5.08, 0.14 4.86, 0.08 4.63 C0.03 4.41, 0 4.18, 0 3.95 C0 3.72, 0.03 3.49, 0.08 3.26 C0.14 3.04, 0.22 2.81, 0.33 2.6 C0.44 2.38, 0.58 2.17, 0.74 1.97 C0.9 1.78, 1.08 1.58, 1.29 1.41 C1.49 1.23, 1.72 1.07, 1.97 0.92 C2.21 0.78, 2.48 0.64, 2.75 0.53 C3.03 0.41, 3.32 0.32, 3.62 0.24 C3.92 0.16, 4.24 0.1, 4.55 0.06 C4.86 0.02, 5.19 0, 5.51 0 C5.82 0, 6.15 0.02, 6.46 0.06 C6.77 0.1, 7.09 0.16, 7.39 0.24 C7.69 0.32, 7.98 0.41, 8.26 0.53 C8.53 0.64, 8.8 0.78, 9.04 0.92 C9.29 1.07, 9.52 1.23, 9.72 1.41 C9.93 1.58, 10.11 1.78, 10.27 1.97 C10.43 2.17, 10.57 2.38, 10.68 2.6 C10.79 2.81, 10.87 3.04, 10.93 3.26 C10.98 3.49, 11 3.83, 11.01 3.95 C11.02 4.06, 11.02 3.83, 11.01 3.95" stroke="#343a40" stroke-width="2" fill="none"></path>
    </g>
    <g stroke-linecap="round" transform="translate(205.52753987765414 104.8517331673279) rotate(341.33308572578227 5.505115489123 3.9470639355977255)">
      <path d="M11.01 3.95 C11.01 4.18, 10.98 4.41, 10.93 4.63 C10.87 4.86, 10.79 5.08, 10.68 5.3 C10.57 5.51, 10.43 5.72, 10.27 5.92 C10.11 6.12, 9.93 6.31, 9.72 6.48 C9.52 6.66, 9.29 6.82, 9.04 6.97 C8.8 7.12, 8.53 7.25, 8.26 7.37 C7.98 7.48, 7.69 7.58, 7.39 7.66 C7.09 7.73, 6.77 7.79, 6.46 7.83 C6.15 7.87, 5.82 7.89, 5.51 7.89 C5.19 7.89, 4.86 7.87, 4.55 7.83 C4.24 7.79, 3.92 7.73, 3.62 7.66 C3.32 7.58, 3.03 7.48, 2.75 7.37 C2.48 7.25, 2.21 7.12, 1.97 6.97 C1.72 6.82, 1.49 6.66, 1.29 6.48 C1.08 6.31, 0.9 6.12, 0.74 5.92 C0.58 5.72, 0.44 5.51, 0.33 5.3 C0.22 5.08, 0.14 4.86, 0.08 4.63 C0.03 4.41, 0 4.18, 0 3.95 C0 3.72, 0.03 3.49, 0.08 3.26 C0.14 3.04, 0.22 2.81, 0.33 2.6 C0.44 2.38, 0.58 2.17, 0.74 1.97 C0.9 1.78, 1.08 1.58, 1.29 1.41 C1.49 1.23, 1.72 1.07, 1.97 0.92 C2.21 0.78, 2.48 0.64, 2.75 0.53 C3.03 0.41, 3.32 0.32, 3.62 0.24 C3.92 0.16, 4.24 0.1, 4.55 0.06 C4.86 0.02, 5.19 0, 5.51 0 C5.82 0, 6.15 0.02, 6.46 0.06 C6.77 0.1, 7.09 0.16, 7.39 0.24 C7.69 0.32, 7.98 0.41, 8.26 0.53 C8.53 0.64, 8.8 0.78, 9.04 0.92 C9.29 1.07, 9.52 1.23, 9.72 1.41 C9.93 1.58, 10.11 1.78, 10.27 1.97 C10.43 2.17, 10.57 2.38, 10.68 2.6 C10.79 2.81, 10.87 3.04, 10.93 3.26 C10.98 3.49, 11 3.83, 11.01 3.95 C11.02 4.06, 11.02 3.83, 11.01 3.95" stroke="#343a40" stroke-width="2" fill="none"></path>
    </g>
    <g stroke-linecap="round" transform="translate(237.51953177670998 123.54835180963255) rotate(0 2.2851422785038267 5.40124538555483)">
      <path d="M4.57 5.4 C4.57 5.71, 4.56 6.03, 4.54 6.34 C4.51 6.65, 4.48 6.95, 4.43 7.25 C4.39 7.54, 4.33 7.83, 4.26 8.1 C4.2 8.37, 4.12 8.63, 4.04 8.87 C3.95 9.11, 3.86 9.34, 3.75 9.54 C3.65 9.74, 3.54 9.92, 3.43 10.08 C3.31 10.24, 3.19 10.37, 3.07 10.48 C2.94 10.58, 2.81 10.67, 2.68 10.72 C2.55 10.77, 2.42 10.8, 2.29 10.8 C2.15 10.8, 2.02 10.77, 1.89 10.72 C1.76 10.67, 1.63 10.58, 1.5 10.48 C1.38 10.37, 1.26 10.24, 1.14 10.08 C1.03 9.92, 0.92 9.74, 0.82 9.54 C0.71 9.34, 0.62 9.11, 0.53 8.87 C0.45 8.63, 0.37 8.37, 0.31 8.1 C0.24 7.83, 0.18 7.54, 0.14 7.25 C0.09 6.95, 0.06 6.65, 0.03 6.34 C0.01 6.03, 0 5.71, 0 5.4 C0 5.09, 0.01 4.77, 0.03 4.46 C0.06 4.16, 0.09 3.85, 0.14 3.55 C0.18 3.26, 0.24 2.97, 0.31 2.7 C0.37 2.43, 0.45 2.17, 0.53 1.93 C0.62 1.69, 0.71 1.46, 0.82 1.26 C0.92 1.06, 1.03 0.88, 1.14 0.72 C1.26 0.57, 1.38 0.43, 1.5 0.33 C1.63 0.22, 1.76 0.14, 1.89 0.08 C2.02 0.03, 2.15 0, 2.29 0 C2.42 0, 2.55 0.03, 2.68 0.08 C2.81 0.14, 2.94 0.22, 3.07 0.33 C3.19 0.43, 3.31 0.57, 3.43 0.72 C3.54 0.88, 3.65 1.06, 3.75 1.26 C3.86 1.46, 3.95 1.69, 4.04 1.93 C4.12 2.17, 4.2 2.43, 4.26 2.7 C4.33 2.97, 4.39 3.26, 4.43 3.55 C4.48 3.85, 4.51 4.16, 4.54 4.46 C4.56 4.77, 4.56 5.24, 4.57 5.4 C4.58 5.56, 4.58 5.24, 4.57 5.4" stroke="#343a40" stroke-width="2" fill="none"></path>
    </g>
    <g stroke-linecap="round">
      <g transform="translate(113.0831477018121 107.55235586010485) rotate(0 10.490880460404469 9.867659838994541)">
        <path d="M0 0 C6.22 -0.4, 12.44 -0.8, 19.32 -1.25 M0 0 C3.92 -0.25, 7.83 -0.51, 19.32 -1.25 M19.32 -1.25 C19.67 3.38, 20.01 8, 20.98 20.98 M19.32 -1.25 C19.83 5.63, 20.35 12.51, 20.98 20.98" stroke="#343a40" stroke-width="2" fill="none"></path>
      </g>
    </g>
    <mask></mask>
    <g stroke-linecap="round">
      <g transform="translate(137.59649214394562 162.18803033706354) rotate(0 -37.912587802452435 -12.04893201392997)">
        <path d="M0 0 C0.82 10.92, 1.64 21.85, 2.08 27.63 M0 0 C0.68 9.02, 1.36 18.05, 2.08 27.63 M2.08 27.63 C-24.75 28.45, -51.57 29.28, -72.29 29.91 M2.08 27.63 C-16.03 28.19, -34.15 28.74, -72.29 29.91 M-72.29 29.91 C-74.01 5.01, -75.73 -19.9, -77.9 -51.31 M-72.29 29.91 C-73.97 5.6, -75.65 -18.72, -77.9 -51.31 M-77.9 -51.31 C-64.48 -52.17, -51.05 -53.03, -35.73 -54.01 M-77.9 -51.31 C-62.17 -52.32, -46.43 -53.33, -35.73 -54.01" stroke="#343a40" stroke-width="2" fill="none"></path>
      </g>
    </g>
    <mask></mask>
    <g stroke-linecap="round">
      <g transform="translate(133.6494282083479 128.53411678091425) rotate(0 -9.867659838994541 18.073398020894956)">
        <path d="M0 0 C-1.94 0.17, -8.27 -0.1, -11.63 1.04 C-14.99 2.18, -18.18 4.29, -20.15 6.86 C-22.12 9.42, -23.16 13.47, -23.47 16.41 C-23.79 19.35, -23.2 21.88, -22.02 24.51 C-20.84 27.14, -19.08 30.26, -16.41 32.2 C-13.75 34.14, -9.38 36.04, -6.02 36.15 C-2.67 36.25, 2.11 33.38, 3.74 32.82 M0 0 C-1.94 0.17, -8.27 -0.1, -11.63 1.04 C-14.99 2.18, -18.18 4.29, -20.15 6.86 C-22.12 9.42, -23.16 13.47, -23.47 16.41 C-23.79 19.35, -23.2 21.88, -22.02 24.51 C-20.84 27.14, -19.08 30.26, -16.41 32.2 C-13.75 34.14, -9.38 36.04, -6.02 36.15 C-2.67 36.25, 2.11 33.38, 3.74 32.82" stroke="#343a40" stroke-width="2" fill="none"></path>
      </g>
    </g>
    <mask></mask>
    <g stroke-linecap="round">
      <g transform="translate(172.91232735718836 132.68892092364877) rotate(0 16.203736156664718 -12.87989284247692)">
        <path d="M0 0 C0.07 -8.77, 0.14 -17.54, 0.21 -25.14 M0 0 C0.07 -8.18, 0.14 -16.37, 0.21 -25.14 M0.21 -25.14 C11.22 -25.35, 22.24 -25.56, 32.41 -25.76 M0.21 -25.14 C8.6 -25.3, 16.99 -25.46, 32.41 -25.76" stroke="#343a40" stroke-width="2" fill="none"></path>
      </g>
    </g>
    <mask></mask>
    <g stroke-linecap="round">
      <g transform="translate(217.9919523058577 107.34461565296806) rotate(0 -11.217971185383021 41.34030122020829)">
        <path d="M0 0 C8.84 -0.22, 17.68 -0.45, 24.51 -0.62 M0 0 C7.75 -0.2, 15.5 -0.39, 24.51 -0.62 M24.51 -0.62 C24.3 21.07, 24.08 42.77, 23.68 83.3 M24.51 -0.62 C24.34 16.4, 24.18 33.43, 23.68 83.3 M23.68 83.3 C4.27 83.25, -15.14 83.19, -46.12 83.1 M23.68 83.3 C5.68 83.25, -12.33 83.2, -46.12 83.1 M-46.12 83.1 C-46.32 77.49, -46.52 71.89, -46.95 59.62 M-46.12 83.1 C-46.35 76.62, -46.58 70.14, -46.95 59.62" stroke="#343a40" stroke-width="2" fill="none"></path>
      </g>
    </g>
    <mask></mask>
    <g stroke-linecap="round">
      <g transform="translate(170.62718507868453 167.38153551548157) rotate(0 -11.114101081814397 -17.24243719234812)">
        <path d="M0 0 C-1.38 0.14, -5.33 1.28, -8.31 0.83 C-11.29 0.38, -15.3 -0.8, -17.87 -2.7 C-20.43 -4.6, -22.64 -7.55, -23.68 -10.59 C-24.72 -13.64, -24.82 -17.8, -24.1 -20.98 C-23.37 -24.17, -21.61 -27.37, -19.32 -29.71 C-17.03 -32.04, -13.88 -34.07, -10.35 -35 C-6.82 -35.94, -0.17 -35.26, 1.87 -35.32 M0 0 C-1.38 0.14, -5.33 1.28, -8.31 0.83 C-11.29 0.38, -15.3 -0.8, -17.87 -2.7 C-20.43 -4.6, -22.64 -7.55, -23.68 -10.59 C-24.72 -13.64, -24.82 -17.8, -24.1 -20.98 C-23.37 -24.17, -21.61 -27.37, -19.32 -29.71 C-17.03 -32.04, -13.88 -34.07, -10.35 -35 C-6.82 -35.94, -0.17 -35.26, 1.87 -35.32" stroke="#343a40" stroke-width="2" fill="none"></path>
      </g>
    </g>
    <mask></mask>
    <g stroke-linecap="round">
      <g transform="translate(31.882277266408664 96.49455642890689) rotate(0 14.515863654621626 25.2966512811538)">
        <path d="M0 0 C0.06 3.71, -0.82 15.48, 0.34 22.24 C1.5 29, 3.79 35.85, 6.96 40.58 C10.13 45.3, 15.68 50.62, 19.35 50.59 C23.03 50.57, 27.42 42.1, 29.03 40.41 M0 0 C0.06 3.71, -0.82 15.48, 0.34 22.24 C1.5 29, 3.79 35.85, 6.96 40.58 C10.13 45.3, 15.68 50.62, 19.35 50.59 C23.03 50.57, 27.42 42.1, 29.03 40.41" stroke="#343a40" stroke-width="2" fill="none"></path>
      </g>
    </g>
    <mask></mask>
    <g stroke-linecap="round">
      <g transform="translate(86.21065585680594 86.30798544320714) rotate(0 3.819964119637234 10.695899534984392)">
        <path d="M0 0 C0.76 1.87, 3.31 7.64, 4.58 11.21 C5.86 14.77, 7.13 19.69, 7.64 21.39 M0 0 C0.76 1.87, 3.31 7.64, 4.58 11.21 C5.86 14.77, 7.13 19.69, 7.64 21.39" stroke="#343a40" stroke-width="2" fill="none"></path>
      </g>
    </g>
    <mask></mask>
    <g stroke-linecap="round">
      <g transform="translate(35.277800928308125 180.5337670609283) rotate(0 -9.7621305279622 17.232282584141785)">
        <path d="M0 0 C-3.25 5.74, -16.27 28.72, -19.52 34.46 M0 0 C-3.25 5.74, -16.27 28.72, -19.52 34.46" stroke="#343a40" stroke-width="2" fill="none"></path>
      </g>
    </g>
    <mask></mask>
    <g stroke-linecap="round">
      <g transform="translate(71.77968029373164 192.5878760606729) rotate(0 -2.122202288687504 17.486946858784222)">
        <path d="M0 0 C-0.08 2.77, 0.2 10.81, -0.51 16.64 C-1.22 22.47, -3.62 31.92, -4.24 34.97 M0 0 C-0.08 2.77, 0.2 10.81, -0.51 16.64 C-1.22 22.47, -3.62 31.92, -4.24 34.97" stroke="#343a40" stroke-width="2" fill="none"></path>
      </g>
    </g>
    <mask></mask>
    <g stroke-linecap="round">
      <g transform="translate(243.42340140276906 186.81548583544327) rotate(0 2.0373141971401765 22.070903802348994)">
        <path d="M0 0 C-0.03 3.48, -0.88 13.53, -0.17 20.88 C0.54 28.24, 3.51 40.27, 4.24 44.14 M0 0 C-0.03 3.48, -0.88 13.53, -0.17 20.88 C0.54 28.24, 3.51 40.27, 4.24 44.14" stroke="#343a40" stroke-width="2" fill="none"></path>
      </g>
    </g>
    <mask></mask>
    <g stroke-linecap="round">
      <g transform="translate(279.9252807681926 188.6830238494881) rotate(0 1.2733213732126387 20.797582429136583)">
        <path d="M0 0 C0.06 3.71, -0.08 15.31, 0.34 22.24 C0.76 29.17, 2.18 38.37, 2.55 41.6 M0 0 C0.06 3.71, -0.08 15.31, 0.34 22.24 C0.76 29.17, 2.18 38.37, 2.55 41.6" stroke="#343a40" stroke-width="2" fill="none"></path>
      </g>
    </g>
    <mask></mask>
    <g stroke-linecap="round">
      <g transform="translate(239.85810155777403 88.85462818963151) rotate(0 -4.159516485827453 8.488809154749788)">
        <path d="M0 0 C-0.85 1.39, -3.71 5.49, -5.09 8.32 C-6.48 11.15, -7.78 15.53, -8.32 16.98 M0 0 C-0.85 1.39, -3.71 5.49, -5.09 8.32 C-6.48 11.15, -7.78 15.53, -8.32 16.98" stroke="#343a40" stroke-width="2" fill="none"></path>
      </g>
    </g>
    <mask></mask>
    <g stroke-linecap="round">
      <g transform="translate(285.01856626104177 90.5523900205817) rotate(0 -10.186570985699518 48.216435998977886)">
        <path d="M0 0 C2.04 3.31, 8.74 11.12, 12.22 19.86 C15.7 28.61, 19.27 42.56, 20.88 52.46 C22.5 62.36, 22.04 72.81, 21.9 79.29 C21.76 85.77, 21.99 88.79, 20.03 91.34 C18.08 93.89, 14.06 93.72, 10.19 94.57 C6.31 95.41, 2.97 96.29, -3.23 96.43 C-9.42 96.57, -20.49 95.81, -26.99 95.41 C-33.5 95.02, -39.73 94.28, -42.27 94.06 M0 0 C2.04 3.31, 8.74 11.12, 12.22 19.86 C15.7 28.61, 19.27 42.56, 20.88 52.46 C22.5 62.36, 22.04 72.81, 21.9 79.29 C21.76 85.77, 21.99 88.79, 20.03 91.34 C18.08 93.89, 14.06 93.72, 10.19 94.57 C6.31 95.41, 2.97 96.29, -3.23 96.43 C-9.42 96.57, -20.49 95.81, -26.99 95.41 C-33.5 95.02, -39.73 94.28, -42.27 94.06" stroke="#343a40" stroke-width="2" fill="none"></path>
      </g>
    </g>
    <mask></mask>
    <g stroke-linecap="round">
      <g transform="translate(291.8096135848416 102.09717047104095) rotate(0 -24.957098914964035 18.845156323544188)">
        <path d="M0 0 C-0.14 2.83, 0.68 11.6, -0.85 16.98 C-2.38 22.35, -6.03 28.81, -9.17 32.26 C-12.31 35.71, -15.87 36.98, -19.69 37.69 C-23.51 38.4, -28.49 37.58, -32.09 36.5 C-35.68 35.43, -38.28 33.3, -41.26 31.24 C-44.23 29.17, -48.47 25.3, -49.91 24.11 M0 0 C-0.14 2.83, 0.68 11.6, -0.85 16.98 C-2.38 22.35, -6.03 28.81, -9.17 32.26 C-12.31 35.71, -15.87 36.98, -19.69 37.69 C-23.51 38.4, -28.49 37.58, -32.09 36.5 C-35.68 35.43, -38.28 33.3, -41.26 31.24 C-44.23 29.17, -48.47 25.3, -49.91 24.11" stroke="#343a40" stroke-width="2" fill="none"></path>
      </g>
    </g>
    <mask></mask>
    <g stroke-linecap="round">
      <g transform="translate(246.47937269847876 229.25953160919153) rotate(0 -4.888571741341593 0.509328549285101)">
        <path d="M0 0 C-1.7 -0.2, -8.43 -1.56, -10.19 -1.19 C-11.94 -0.82, -12.35 1.73, -10.53 2.21 C-8.7 2.68, -1.13 1.75, 0.75 1.66 M0 0 C-1.7 -0.2, -8.43 -1.56, -10.19 -1.19 C-11.94 -0.82, -12.35 1.73, -10.53 2.21 C-8.7 2.68, -1.13 1.75, 0.75 1.66" stroke="#343a40" stroke-width="2" fill="none"></path>
      </g>
    </g>
    <mask></mask>
    <g stroke-linecap="round">
      <g transform="translate(281.7928187822374 229.76886015847663) rotate(0 -5.05834792443693 1.1035451901175293)">
        <path d="M0 0 C-1.56 -0.14, -7.56 -1.36, -9.34 -0.85 C-11.12 -0.34, -12.35 2.74, -10.7 3.06 C-9.04 3.38, -1.3 1.4, 0.58 1.07 M0 0 C-1.56 -0.14, -7.56 -1.36, -9.34 -0.85 C-11.12 -0.34, -12.35 2.74, -10.7 3.06 C-9.04 3.38, -1.3 1.4, 0.58 1.07" stroke="#343a40" stroke-width="2" fill="none"></path>
      </g>
    </g>
    <mask></mask>
    <g stroke-linecap="round">
      <g transform="translate(67.53527571635573 227.2222174120518) rotate(0 5.8572783167774105 -1.443097556307407)">
        <path d="M0 0 C1.7 -0.54, 8.23 -3.28, 10.19 -3.23 C12.14 -3.17, 13.28 -0.19, 11.71 0.34 C10.15 0.87, 2.6 0.01, 0.78 -0.06 M0 0 C1.7 -0.54, 8.23 -3.28, 10.19 -3.23 C12.14 -3.17, 13.28 -0.19, 11.71 0.34 C10.15 0.87, 2.6 0.01, 0.78 -0.06" stroke="#343a40" stroke-width="2" fill="none"></path>
      </g>
    </g>
    <mask></mask>
    <g stroke-linecap="round">
      <g transform="translate(15.248484583299842 218.25361328766803) rotate(28.014627700807935 5.8572783167774105 -1.443097556307407)">
        <path d="M0 0 C1.7 -0.54, 8.23 -3.28, 10.19 -3.23 C12.14 -3.17, 13.27 -0.23, 11.71 0.34 C10.16 0.9, 2.65 0.19, 0.84 0.16 M0 0 C1.7 -0.54, 8.23 -3.28, 10.19 -3.23 C12.14 -3.17, 13.27 -0.23, 11.71 0.34 C10.16 0.9, 2.65 0.19, 0.84 0.16" stroke="#343a40" stroke-width="2" fill="none"></path>
      </g>
    </g>
    <mask></mask>
  </svg>