
  <svg version="1.1" xmlns="http://www.w3.org/2000/svg" viewBox="0 0 318.01665499000774 284.3406680035419"
    width="318.01665499000774" height="284.3406680035419">
    <!-- svg-source:excalidraw -->

    <rect x="0" y="0" width="316.23671992482036" height="284.34066800354174" fill="transparent"></rect>
    <g stroke-opacity="0.3" fill-opacity="0.3" stroke-linecap="round"
      transform="translate(10.601268626081605 128.04449170934816) rotate(359.0562894002201 82.7325888633165 73.15304944181563)">
      <path
        d="M103.75 18.5 C119.22 32.48, 134.7 46.45, 144.72 55.5 C165.47 74, 165.47 74, 144.72 92.5 C131.04 104.28, 117.37 116.07, 103.75 127.81 C83 146.31, 83 146.31, 62.25 127.81 C51.14 118.35, 40.02 108.89, 20.75 92.5 C0 74, 0 74, 20.75 55.5 C30.52 46.79, 40.3 38.07, 62.25 18.5 C83 0, 83 0, 103.75 18.5"
        stroke="none" stroke-width="0" fill="#a5d8ff"></path>
      <path
        d="M103.75 18.5 C118.49 31.81, 133.23 45.12, 144.72 55.5 M103.75 18.5 C119.69 32.89, 135.62 47.29, 144.72 55.5 M144.72 55.5 C165.47 74, 165.47 74, 144.72 92.5 M144.72 55.5 C165.47 74, 165.47 74, 144.72 92.5 M144.72 92.5 C135.49 100.45, 126.27 108.4, 103.75 127.81 M144.72 92.5 C132.11 103.37, 119.5 114.24, 103.75 127.81 M103.75 127.81 C83 146.31, 83 146.31, 62.25 127.81 M103.75 127.81 C83 146.31, 83 146.31, 62.25 127.81 M62.25 127.81 C47.16 114.96, 32.06 102.12, 20.75 92.5 M62.25 127.81 C53.65 120.49, 45.04 113.17, 20.75 92.5 M20.75 92.5 C0 74, 0 74, 20.75 55.5 M20.75 92.5 C0 74, 0 74, 20.75 55.5 M20.75 55.5 C32.92 44.65, 45.09 33.8, 62.25 18.5 M20.75 55.5 C37.25 40.79, 53.76 26.07, 62.25 18.5 M62.25 18.5 C83 0, 83 0, 103.75 18.5 M62.25 18.5 C83 0, 83 0, 103.75 18.5"
        stroke="transparent" stroke-width="4" fill="none"></path>
    </g>
    <g stroke-opacity="0.3" fill-opacity="0.3" stroke-linecap="round"
      transform="translate(9.988778027455396 92.58636302188245) rotate(359.0562894002201 82.7325888633165 73.15304944181563)">
      <path
        d="M103.75 18.5 C117.16 30.61, 130.58 42.73, 144.72 55.5 C165.47 74, 165.47 74, 144.72 92.5 C131.03 104.29, 117.35 116.09, 103.75 127.81 C83 146.31, 83 146.31, 62.25 127.81 C46.11 114.07, 29.97 100.34, 20.75 92.5 C0 74, 0 74, 20.75 55.5 C36.39 41.55, 52.03 27.61, 62.25 18.5 C83 0, 83 0, 103.75 18.5"
        stroke="none" stroke-width="0" fill="#a5d8ff"></path>
      <path
        d="M103.75 18.5 C114.83 28.51, 125.92 38.52, 144.72 55.5 M103.75 18.5 C116.03 29.59, 128.3 40.68, 144.72 55.5 M144.72 55.5 C165.47 74, 165.47 74, 144.72 92.5 M144.72 55.5 C165.47 74, 165.47 74, 144.72 92.5 M144.72 92.5 C130.4 104.84, 116.08 117.18, 103.75 127.81 M144.72 92.5 C129.31 105.77, 113.91 119.05, 103.75 127.81 M103.75 127.81 C83 146.31, 83 146.31, 62.25 127.81 M103.75 127.81 C83 146.31, 83 146.31, 62.25 127.81 M62.25 127.81 C46.07 114.04, 29.89 100.28, 20.75 92.5 M62.25 127.81 C49.9 117.3, 37.55 106.79, 20.75 92.5 M20.75 92.5 C0 74, 0 74, 20.75 55.5 M20.75 92.5 C0 74, 0 74, 20.75 55.5 M20.75 55.5 C34.49 43.25, 48.23 31, 62.25 18.5 M20.75 55.5 C31.38 46.02, 42.01 36.55, 62.25 18.5 M62.25 18.5 C83 0, 83 0, 103.75 18.5 M62.25 18.5 C83 0, 83 0, 103.75 18.5"
        stroke="transparent" stroke-width="4" fill="none"></path>
    </g>


    <g stroke-opacity="0.3" fill-opacity="0.3" stroke-linecap="round"
      transform="translate(10.801064920670001 50.45469644034097) rotate(359.0562894002201 82.7325888633165 73.15304944181563)">
      <path
        d="M103.75 18.5 C117.67 31.07, 131.59 43.64, 144.72 55.5 C165.47 74, 165.47 74, 144.72 92.5 C130.81 104.49, 116.9 116.47, 103.75 127.81 C83 146.31, 83 146.31, 62.25 127.81 C48.1 115.77, 33.95 103.73, 20.75 92.5 C0 74, 0 74, 20.75 55.5 C34.19 43.52, 47.62 31.54, 62.25 18.5 C83 0, 83 0, 103.75 18.5"
        stroke="none" stroke-width="0" fill="#a5d8ff"></path>
      <path
        d="M103.75 18.5 C114.64 28.34, 125.53 38.18, 144.72 55.5 M103.75 18.5 C116.03 29.6, 128.32 40.69, 144.72 55.5 M144.72 55.5 C165.47 74, 165.47 74, 144.72 92.5 M144.72 55.5 C165.47 74, 165.47 74, 144.72 92.5 M144.72 92.5 C131.97 103.49, 119.22 114.47, 103.75 127.81 M144.72 92.5 C133.66 102.03, 122.6 111.56, 103.75 127.81 M103.75 127.81 C83 146.31, 83 146.31, 62.25 127.81 M103.75 127.81 C83 146.31, 83 146.31, 62.25 127.81 M62.25 127.81 C53.12 120.04, 44 112.28, 20.75 92.5 M62.25 127.81 C48.92 116.46, 35.58 105.12, 20.75 92.5 M20.75 92.5 C0 74, 0 74, 20.75 55.5 M20.75 92.5 C0 74, 0 74, 20.75 55.5 M20.75 55.5 C31.16 46.22, 41.57 36.94, 62.25 18.5 M20.75 55.5 C34.04 43.65, 47.32 31.81, 62.25 18.5 M62.25 18.5 C83 0, 83 0, 103.75 18.5 M62.25 18.5 C83 0, 83 0, 103.75 18.5"
        stroke="transparent" stroke-width="4" fill="none"></path>
    </g>
    

  </svg>